<svg stroke-miterlimit="10" style="fill-rule:nonzero;clip-rule:evenodd;stroke-linecap:round;stroke-linejoin:round" viewBox="0 0 175 153" xml:space="preserve" xmlns="http://www.w3.org/2000/svg" xmlns:vectornator="http://vectornator.io"><clipPath id="a"><path d="M0 0h175v153H0z"/></clipPath><g fill-rule="evenodd" clip-path="url(#a)" vectornator:layerName="Layer 1"><path d="M1.94 77.232a.337.337 0 0 0 .017-.035l-.158.032c-.105.022.111-.128.647-.449.536-.32 1-.607 1.392-.859.393-.25.723-.52.99-.81.267-.29.388-.41.364-.362-.024.05-.027.07-.008.063.02-.007.281-.301.786-.885.504-.583 1.09-.972 1.755-1.166.665-.194 1.559-.395 2.68-.603a47.018 47.018 0 0 0 3.308-.736c1.084-.283 1.963-.477 2.636-.582.674-.105 1.46-.161 2.36-.17.899-.007 1.732.05 2.5.175.767.124 1.642.41 2.625.858.982.448 2.357 1.176 4.124 2.186 1.767 1.01 3.06 1.746 3.88 2.21.82.463 1.454.866 1.902 1.207.447.341.708.524.785.549.076.024.463.335 1.163.933.7.597 1.255 1.213 1.666 1.848.412.634.702 1.114.87 1.44.17.325.321.61.456.852.134.243.246.437.337.585.09.147.162.268.216.362.055.094.053.124-.006.09-.058-.034.167.238.675.815.508.578 1.124 1.497 1.849 2.758.724 1.262 1.227 2.282 1.508 3.06a73.621 73.621 0 0 0 .901 2.388c.068.176.118.303.15.382.033.079.044.12.034.122-.01.003.075.16.254.47.178.312.543 1.215 1.094 2.708.55 1.492.952 2.663 1.204 3.51a63.145 63.145 0 0 1 1.03 3.838c.15.627.259 1.355.328 2.184.069.829.099 1.556.09 2.182a26.42 26.42 0 0 0 .017 1.575c.02.424 0 1.064-.06 1.919-.06.856-.205 1.946-.433 3.271a1466.55 1466.55 0 0 1-.504 2.917c-.109.62-.216 1.178-.323 1.676a59.03 59.03 0 0 0-.385 2.064 399.74 399.74 0 0 1-.365 2.084c-.091.511-.164.88-.22 1.106-.055.226-.09.373-.103.441-.014.068-.01.104.013.109.022.005-.006.129-.086.373-.08.244-.143.968-.188 2.173-.045 1.206-.038 2.105.019 2.696.058.592.128 1.205.21 1.839.083.634.153 1.077.211 1.329a2.5 2.5 0 0 0 .173.541 5.59 5.59 0 0 1 .252.568c-.008-.009-.003.016.017.073.02.058.036.158.05.3.013.143.027.24.04.291.013.051.011.032-.007-.056-.017-.088.035.285.158 1.118.124.833.226 1.473.309 1.919.082.446.132.746.152.901.019.155.025.262.018.32-.007.06-.008.042-.003-.052.004-.094.01.138.016.694.006.557.01 1.009.009 1.357 0 .347-.004.581-.012.699a3.288 3.288 0 0 1-.052.398c-.027.146-.05.283-.071.41-.021.127-.03.205-.03.235.002.03.003.03.004.002 0-.03-.03.194-.09.672-.059.478-.13.985-.214 1.523-.083.538-.183.945-.3 1.22a29.047 29.047 0 0 1-.35.798 67.16 67.16 0 0 1-.24.587l-.039-.001c-.152.139-.224.197-.215.172l-.222.218a.133.133 0 0 0-.067.063c-.215.246-3.183-1.28-3.267-1.659a34.538 34.538 0 0 0-.126-.563 134.76 134.76 0 0 0-.211-.69c-.069-.217-.092-.328-.07-.33a3.136 3.136 0 0 1-.174-.484c-.071-.24-.157-.533-.256-.879-.1-.345-.143-.533-.13-.561.013-.029.007-.061-.016-.095a5.189 5.189 0 0 1-.201-.459c-.111-.27-.262-.631-.452-1.083-.19-.452-.546-1.046-1.067-1.781-.522-.736-.937-1.312-1.246-1.728-.309-.415-.79-1.041-1.442-1.876-.653-.836-1.114-1.516-1.383-2.042-.269-.526-.59-1.445-.966-2.755-.375-1.311-.826-2.457-1.352-3.438a360.678 360.678 0 0 1-2.07-3.936c-.855-1.643-1.635-2.976-2.34-3.998a15.176 15.176 0 0 0-2.62-2.877c-1.043-.896-2.095-2.198-3.157-3.906-1.063-1.707-1.807-3.024-2.232-3.95a38.388 38.388 0 0 0-1.113-2.26c-.318-.582-.698-1.409-1.14-2.483-.442-1.073-.97-1.949-1.585-2.628-.615-.678-4.72-5.887-5.055-6.987-.335-1.1-.556-2.048-.66-2.844a20.881 20.881 0 0 0-.363-2.055c-.136-.574-.297-1.047-.482-1.419a30.435 30.435 0 0 0-.45-.873c-.114-.21-.22-.419-.32-.627a5.06 5.06 0 0 0-.414-.697 7.27 7.27 0 0 0-.62-.77 15.651 15.651 0 0 0-.48-.51 3.222 3.222 0 0 0-.357-.29 107.155 107.155 0 0 0-1.088-.76c-.057-.039-.087-.046-.09-.02-.002.024-.103-.044-.303-.205-.2-.162-.298-.245-.294-.251a1.311 1.311 0 0 0-.021.044c-.018.036-.106-.044-.266-.24-.16-.196-.258-.262-.296-.197-.037.065-.068.052-.093-.039-.025-.09-.22-.384-.587-.88a25.947 25.947 0 0 0-.87-1.133c-.216-.258-1.845-4.663-1.769-4.478Z" stroke="#000" stroke-width=".5"/><path d="M44.624 0c-.619 0-1.192.34-1.501.876L.232 75.24a1.714 1.714 0 0 0 0 1.72l42.89 74.364c.31.536.883.876 1.502.876h85.752c.619 0 1.192-.34 1.501-.876l42.891-74.364a1.713 1.713 0 0 0 0-1.72L131.877.876A1.741 1.741 0 0 0 130.376 0H44.624Zm1.002 3.473h83.748l41.891 72.642-41.891 72.612H45.626L3.736 76.115l41.89-72.642Z" fill="#ff9adf"/></g></svg>