<svg stroke-miterlimit="10" style="fill-rule:nonzero;clip-rule:evenodd;stroke-linecap:round;stroke-linejoin:round" viewBox="0 0 175 153" xml:space="preserve" xmlns="http://www.w3.org/2000/svg" xmlns:vectornator="http://vectornator.io"><path d="M44.599 0c-.606 0-1.168.333-1.471.858L.227 75.23a1.736 1.736 0 0 0 0 1.716l42.901 74.372c.303.526.864.858 1.47.858h85.803c.607 0 1.168-.332 1.471-.858l42.901-74.372a1.733 1.733 0 0 0 0-1.716L131.872.858A1.707 1.707 0 0 0 130.401 0H44.599Zm.98 3.401h83.842l41.92 72.687-41.92 72.687H45.58L3.658 76.088l41.92-72.687Z" fill-rule="evenodd" vectornator:layerName="Layer 1"/></svg>