<svg stroke-miterlimit="10" style="fill-rule:nonzero;clip-rule:evenodd;stroke-linecap:round;stroke-linejoin:round" viewBox="0 0 175 153" xml:space="preserve" xmlns="http://www.w3.org/2000/svg" xmlns:vectornator="http://vectornator.io"><clipPath id="a"><path d="M0 0h175v153H0z"/></clipPath><g clip-path="url(#a)" vectornator:layerName="Layer 1" fill-rule="evenodd"><path d="m2.019 77.24-.002.754a53 53 0 0 0 1.24.09c.71.047 1.728.23 3.055.551 1.326.32 2.236.556 2.73.706.493.15.795.255.905.312l.521.277c.24.128.592.345 1.06.652.468.307.671.436.609.387-.061-.05.137.073.597.37.459.297.84.536 1.144.716.304.18 1.576.78 3.817 1.799 2.242 1.018 4.298 1.661 6.169 1.929 1.87.267 2.817.404 2.84.411.02.008.373.038 1.055.093.683.054 1.667.054 2.953 0a42.57 42.57 0 0 0 3.726-.314c1.198-.157 2.973-.623 5.324-1.4 2.35-.777 3.936-1.072 4.758-.883.822.187 1.447.477 1.874.868.427.39.681.674.763.85.081.177.081.236 0 .179-.082-.058-.02.312.183 1.111.204.799.396 1.964.579 3.495.181 1.53.53 3.623 1.047 6.276.516 2.653 1.418 4.715 2.705 6.186a312.191 312.191 0 0 0 3.726 4.187c1.197 1.321 1.866 2.821 2.007 4.499.142 1.678-.01 2.736-.452 3.174-.444.438-.942 1.255-1.497 2.451a177.184 177.184 0 0 0-1.41 3.104c-.386.873-.59 1.485-.611 1.835-.022.35-.03.713-.025 1.089.004.376-.012.769-.048 1.181-.037.411-.093.78-.17 1.108l-.25 1.099c-.09.406-.177.779-.26 1.119-.082.34-.136.493-.161.459-.026-.034-.09.174-.191.624-.101.451-.126.788-.075 1.011.05.223-.003.903-.162 2.04-.157 1.136-.31 1.964-.456 2.482-.147.517-.224.808-.23.875-.005.065-.018.083-.038.053-.02-.03-.025-.044-.016-.042.01.002.001.06-.026.172a.91.91 0 0 0-.028.283c.008.075-.01.207-.054.394-.043.188-.068.256-.076.205-.007-.052-.107.218-.3.809-.191.59-.306.872-.343.845-.114.465-.663 1.765-1.646 3.897-.044-.079-.11.077-.197.466-.089.39-.13.551-.127.484.004-.067.002-.082-.006-.046a7.48 7.48 0 0 1-.23.541 9.82 9.82 0 0 1-.201.442c.011-.032.02-.043.029-.033-.077.179-.093.208-.047.087.045-.122.044-.123-.002-.004-.047.119-.053.131-.02.036l-.117.323c-.112.311-.233.659-.364 1.044-.13.385-.182.535-.156.45.015-.042-.063.105-.232.44-.14.218-.21.348-.211.391-.021 0-.042.068-.064.204-.415.61-.559.842-.432.697-.02-.003-.04.023-.057.076s-.029.076-.035.068c-.006-.008-.022.055-.048.189-.027.135-.069.329-.126.583-.058.254-.077.326-.058.214.018-.111.002-.038-.05.219-.05.258-.107.526-.167.804-.06.278-.078.372-.054.283a.61.61 0 0 0 .022-.251c-.01-.077-.012.204-.006.843.434.062.604.083.511.063l1.053.001c.872-.13 1.254-.191 1.143-.183l.528-.041c.462-.035.561-.047.295-.035-.265.012.063.004.985-.023a56.423 56.423 0 0 1 2.793-.015c.94.018 1.662.058 2.164.12.502.063.812.116.931.158.119.044.32.096.603.159a12.803 12.803 0 0 1 2.018.623c.452.174.677.261.675.259-.003-.002.148.016.451.055.304.039.377.083.218.131-.158.048 34.588.214 35.545-.02.956-.235 1.8-.358 2.529-.371l1.646-.027c.37-.006.638.007.806.037.169.031.474.038.915.02.441-.018.817-.083 1.128-.196.31-.113.584-.23.82-.349.237-.12.453-.224.647-.313.194-.088.344-.152.449-.19a.698.698 0 0 1 .208-.053l-.085-.006c-.091-.006.223-.101.942-.285.718-.184 1.228-.277 1.529-.281.301-.003.489.037.565.119.076.081.073.122-.011.123-.084 0-.127-.004-.13-.01a.921.921 0 0 1 .048.081c.035.061-.117.076-.457.046-.341-.03-.499-.022-.474.023.024.045-.157.056-.544.032-.386-.024-.566-.023-.541.004a.224.224 0 0 1 .053.086c.009.031.04.081.093.149a.8.8 0 0 0 .112.127.224.224 0 0 0 .116.032.534.534 0 0 1 .033.003.203.203 0 0 0-.045 0l.039.013c.023.008.028.015.016.022-.011.008.034.002.136-.018l.388-.075c.157-.03.228-.045.215-.047-.013-.002-.009-.005.014-.01l.25-.044.43-.075c.141-.025.419-.058.835-.098a16.91 16.91 0 0 1 1.069-.076 8.02 8.02 0 0 1 .517-.009c.047.003.036.007-.034.012-.071.004.085.015.465.034.381.018.999.095 1.855.232.857.137 1.376.221 1.556.254.18.031.28.049.299.055.02.005.035 0 .045-.016.011-.017.562.077 1.652.281 1.091.205 14.417.594 14.342.435a1.283 1.283 0 0 1-.125-.493c-.008-.17.023-.396.093-.677a4.182 4.182 0 0 0 .097-1.54c-.029-.218-.348-.737-.957-1.557a44.127 44.127 0 0 0-2.126-2.627 20.712 20.712 0 0 1-2.136-2.94 13.539 13.539 0 0 1-1.385-3.087c-.307-1.03-.477-1.605-.511-1.725-.034-.12-.176-.321-.427-.603-.251-.281-.672-1.87-1.265-4.767-.593-2.896-1.217-4.852-1.873-5.865-.656-1.013-1.015-1.694-1.076-2.042a8.067 8.067 0 0 0-.311-1.16c-.146-.426-.21-.807-.192-1.143.018-.336.055-.666.111-.991.054-.326.092-.59.112-.793.02-.204.107-.815.261-1.834.154-1.019.219-1.598.195-1.735-.024-.137-.044-.742-.061-1.815-.016-1.073-.086-2.622-.211-4.646a148.732 148.732 0 0 1-.243-5.346c-.038-1.539.037-2.922.227-4.149.19-1.227.61-2.422 1.26-3.586.651-1.163 1.725-2.562 3.223-4.197a167.426 167.426 0 0 1 4.629-4.858 88.4 88.4 0 0 0 4.714-5.163c1.555-1.84 2.753-3.494 3.595-4.963.843-1.47 1.601-3.127 2.274-4.974a36.748 36.748 0 0 0 1.575-5.757c.378-1.99.609-4.526.693-7.604.084-3.08-.909-4.334-2.979-3.766-2.07.57-3.67 1.388-4.802 2.456-1.133 1.069-2.075 2.194-2.827 3.375-.751 1.182-1.473 2.654-2.165 4.417-.693 1.763-1.327 3.37-1.902 4.822a32.695 32.695 0 0 1-2.062 4.26c-.801 1.389-1.654 2.112-2.562 2.17-.908.058-1.568-.05-1.979-.323-.411-.273-1.232-1.197-2.461-2.773-1.229-1.575-2.278-3.089-3.146-4.541-.867-1.453-1.501-2.412-1.902-2.877a13.573 13.573 0 0 0-1.395-1.384c-.529-.458-.994-.802-1.393-1.03a11.897 11.897 0 0 0-.617-.344 136.26 136.26 0 0 0-2.341-.947c-.069-.022-.11-.021-.121.002-1.779-.483-2.711-.63-2.795-.444-1.006-.332-1.621-.396-1.845-.194-1.286-1.235-2.17-2.36-2.651-3.375-.482-1.016-.763-2.943-.842-5.782-.08-2.84-.08-5.273 0-7.3a280.4 280.4 0 0 0 .171-5.058c.012-.348.038-.517.077-.507.04.011.163-.65.37-1.983.206-1.333.693-2.633 1.458-3.902.766-1.269 1.845-2.727 3.238-4.376 2.786-3.298 5.417-5.057 7.893-5.278 2.476-.22 4.611 1.757 6.406 5.934 1.794 4.176 3.117 6.519 3.969 7.026.852.508 1.41.46 1.674-.146.264-.604.424-.924.479-.958.056-.034-.12-1.162-.526-3.383a299.77 299.77 0 0 1-.604-3.338c-1.507-3.578-2.309-5.422-2.406-5.532-.097-.11-.131-.17-.102-.177.03-.01-.526-.664-1.667-1.966s-2.617-2.303-4.427-3.002c-1.81-.7-3.842-.922-6.096-.667s-4.062.637-5.424 1.147c-1.363.508-2.256.855-2.68 1.04-.423.185-1.051.441-1.884.77-.834.328-1.619.627-2.355.897-.737.27-1.251.464-1.544.584-.292.121-.654.262-1.086.423-.432.16-.698.264-.796.31-.097.047-.131.08-.102.102.03.022-.078.116-.325.28-.247.165-.936.407-2.066.724s-1.964.469-2.504.455c-.54-.014-.977.007-1.309.064a41.27 41.27 0 0 1-.65.107c-.1.015-.11.025-.027.029.082.005-.802.13-2.653.378-1.851.249-3.977.442-6.377.582-2.402.139-4.326.193-5.773.161-1.447-.031-2.431-.076-2.952-.135-.52-.06-.84-.086-.958-.08-.118.007-.384-.052-.8-.177a7.734 7.734 0 0 1-.88-.306c-.17-.078-.38-.179-.63-.303a5.028 5.028 0 0 0-.457-.211c-.056-.017-.144-.082-.265-.194-.12-.113-.086-.042.103.21.188.252-.36-.003-1.646-.767s-2.227-1.386-2.823-1.868c-.598-.482-1.02-.901-1.27-1.257-.25-.357-.5-.632-.754-.826a9.245 9.245 0 0 0-.498-.367.483.483 0 0 0-.011-.006c.07.046-.172-.123-.727-.504L54 17.825a31.48 31.48 0 0 1-.9-.641 9.961 9.961 0 0 1-.324-.25 3.266 3.266 0 0 1-.163-.202 37.109 37.109 0 0 0-.547-.671c-.273-.33-.394-.489-.364-.474.03.015-.016-.085-.136-.298a3.389 3.389 0 0 1-.133-.24c.032.053.042.086.03.1a5.365 5.365 0 0 1-.445-1.003 33.42 33.42 0 0 1-.26-.77c-.032-.102-.03-.1.006.006a383.617 383.617 0 0 1-.287-1.28c.004.016-.01.014-.04-.006-.029-.02-.078-.133-.148-.341-.069-.208-.163-.53-.282-.965-.12-.436-.24-.808-.36-1.117l-.178-.465-.035-.08c-.023-.052.003.014.077.198.075.184-.127-.346-.604-1.592h-.062c-.02-.187-.009-.467.033-.84.04-.374.026-.756-.042-1.147a4.062 4.062 0 0 0-.344-1.08c-.16-.329-.241-.486-.242-.47a.19.19 0 0 1 0-.022c0-.03-.145-.151-.435-.365a24.811 24.811 0 0 0-.445-.322c.004.001.005.004.004.009 0 .004.01.016.032.036.023.02.027.023.013.013-.015-.01.003-.006.053.013.05.02-.02-.057-.211-.228-.19-.172-.556-.458-1.1-.857-.544-.4-.84-.55-.885-.449-.09 0-.236.017-.438.051-.202.034-.348.085-.438.152l-2.648 4.68-2.647 4.679a17207.6 17207.6 0 0 1-5.295 9.357l-2.648 4.68a70693.753 70693.753 0 0 1-5.295 9.358L23.22 39.66a18452.546 18452.546 0 0 1-5.295 9.357 20373.562 20373.562 0 0 1-5.295 9.359 16280.857 16280.857 0 0 0-5.296 9.362C6.45 69.3 5.566 70.872 4.68 72.45a597.363 597.363 0 0 0-2.662 4.79Z"/><path d="M44.624 0c-.619 0-1.192.308-1.501.845L.232 75.208a1.772 1.772 0 0 0 0 1.752l42.89 74.364c.31.536.883.844 1.502.844h85.752c.619 0 1.192-.308 1.501-.844l42.891-74.364a1.771 1.771 0 0 0 0-1.752L131.877.845A1.713 1.713 0 0 0 130.376 0H44.624Zm1.002 3.441h83.78c1.252 2.172 40.581 70.428 41.859 72.643l-41.859 72.643h-83.78L3.736 76.084l41.89-72.643Z"/></g></svg>