<svg stroke-miterlimit="10" style="fill-rule:nonzero;clip-rule:evenodd;stroke-linecap:round;stroke-linejoin:round" viewBox="0 0 175 153" xml:space="preserve" xmlns="http://www.w3.org/2000/svg" xmlns:vectornator="http://vectornator.io"><g fill-rule="evenodd" vectornator:layerName="Layer 1"><path d="M45.775 150.591c-.085-.022-.108-.503-.066-1.442.041-.939.124-1.821.248-2.646s.211-1.424.26-1.796c.05-.373.082-.784.096-1.232.013-.447.03-.809.05-1.086.02-.277.053-.542.099-.796a52.207 52.207 0 0 0 .152-.888c-.024.124.087-.741.333-2.595.247-1.853.436-3.284.566-4.293.13-1.009.285-1.781.467-2.315a31.98 31.98 0 0 0 .542-1.756c.178-.637.342-1.282.49-1.936.15-.655.268-1.328.356-2.02.088-.693.185-1.425.291-2.198.107-.772.193-1.52.258-2.244.066-.725.13-1.256.195-1.593.064-.337.126-.651.185-.942.059-.291.066-.353.022-.187-.044.167.004-.034.141-.601.138-.567.302-1.135.49-1.703.19-.568.339-1.007.448-1.314a235.244 235.244 0 0 0 .425-1.201c-.04.108.031-.088.21-.588.18-.499.325-1.014.434-1.543.11-.528.275-1.153.496-1.873.22-.72.392-1.233.514-1.539a5.45 5.45 0 0 0 .275-.871c.06-.275.116-.505.17-.691.054-.187.133-.432.237-.735a17.987 17.987 0 0 1 .23-.641l-.022.049c-.014.033-.012.024.008-.025a34.025 34.025 0 0 1 1.91-4.77 16.317 16.317 0 0 0 .204-.493c0 .006.04-.088.12-.284.082-.196.124-.296.129-.298.005-.004.001-.003-.011.003-.013.004.055-.15.202-.466.148-.315.214-.465.198-.45-.014.014-.015.013-.003-.003.013-.017.01-.003-.008.04-.018.045.025-.044.127-.269.102-.224.224-.502.366-.835a77.28 77.28 0 0 1 .686-1.547 12.051 12.051 0 0 1 .134-.363c.121-.325.234-.615.34-.87.104-.256.235-.53.392-.826.157-.295.275-.507.354-.636a14.11 14.11 0 0 1 .442-.661c-.032.052.028-.042.179-.281.15-.24.356-.534.616-.881a49.802 49.802 0 0 1 .584-.768 158.838 158.838 0 0 0 .395-.54c.29-.396.403-.561.342-.497.448-.662.777-1.19.988-1.583.211-.394.39-.685.535-.873.145-.188.341-.444.587-.768.246-.324.46-.632.643-.924.183-.293.294-.456.332-.49.04-.034.054-.03.044.013-.009.042.064-.072.22-.343.157-.27.602-.678 1.335-1.221s1.276-.872 1.63-.985a5.28 5.28 0 0 0 .84-.333c.206-.11.307-.153.303-.13-.004.021.068-.03.216-.155.147-.125.647-.22 1.5-.283.852-.064 1.418-.15 1.698-.258.28-.107.596-.029.95.236.353.264.681.549.984.855.302.306.443.441.422.405-.022-.036-.007-.03.047.016.053.046.04.04-.042-.016-.082-.057.012-.005.282.156.27.162.476.31.62.444.144.134.3.298.47.492.168.195.22.249.155.163l.225.306.62.85a14.983 14.983 0 0 0 .288.395c-.01-.008.024.023.102.091.078.068.268.318.57.748.301.43.483.72.546.871.063.15.088.209.075.175-.013-.033.023.035.108.204.086.17.287.559.602 1.169l.859 1.665c.257.5.43.85.52 1.052.089.201.12.287.095.258-.025-.03.028.09.158.362s.336.864.618 1.777c.283.913.5 1.702.651 2.37.151.666.238 1.152.258 1.456.022.304-.001.595-.068.872-.066.277-.11.437-.13.481-.022.044-.027.05-.018.018.009-.032-.007.01-.046.128-.039.118-.11.333-.216.647s-.282.788-.529 1.422a80.96 80.96 0 0 0-.58 1.53 6.66 6.66 0 0 0-.265.842c-.035.175-.058.265-.07.27-.012.004-.018.022-.019.054 0 .03.01.002.033-.084.024-.087-.126.363-.448 1.348a414.71 414.71 0 0 0-1.385 4.297c-.107.339-.21.605-.31.798-.097.192-.135.271-.111.238.024-.033 0-.027-.071.018s-.181.302-.33.77a8.18 8.18 0 0 0-.305 1.245c-.053.361-.078.566-.073.614.004.047.016.067.036.059.02-.007.003.024-.048.093-.05.07-.057.647-.02 1.733.04 1.086.134 1.997.283 2.732.15.735.27 1.395.36 1.98a67.278 67.278 0 0 0 .29 1.774c.006.039.019.108.039.207.02.099.044.133.073.103.03-.032.003.076-.08.324-.083.247.104.659.561 1.235.458.576.83.975 1.119 1.197.289.222.479.378.57.469.09.091.112.114.063.07-.048-.043-.005-.01.13.098.134.109.305.246.511.41.206.164.32.25.34.258a.754.754 0 0 0-.053-.022c-.032-.011-.044-.014-.037-.011l-.006-.003a.085.085 0 0 1-.02-.011.973.973 0 0 1 .115.05l.638.283c.345.153.516.238.514.255-.003.016-.027.01-.071-.02s-.011-.005.098.075.168.125.179.136c.011.011.014.017.009.017-.006 0 .003.008.027.023.024.016.064.041.12.074a9.4 9.4 0 0 0 .515.25c.286.134.518.241.695.322.177.081.26.115.246.103.454.263.678.399.672.408.199.103.291.156.278.159-.013.004.009.001.066-.008a.205.205 0 0 1 .14.021c.035.023-.026.038-.184.046-.158.009.382-.046 1.62-.165.287-.516.395-.71.326-.581.2-.363.343-.617.428-.762.083-.146.116-.211.1-.194.221-.504.34-.735.357-.693a4.246 4.246 0 0 1 .92-1.426c.397-.404.816-1.042 1.257-1.912.44-.87.806-1.738 1.098-2.605a54.54 54.54 0 0 0 .636-1.982c.134-.454.291-.883.472-1.284.18-.402.237-.527.168-.376-.069.151-.002-.038.2-.567.203-.53.255-.661.156-.393-.098.268.01.004.325-.793s.528-1.456.64-1.978c.111-.521.18-.992.206-1.413.025-.42.047-.77.067-1.051.02-.28.038-.594.058-.941.02-.347.026-.493.019-.438-.007.055-.004.054.011-.002.014-.057.02-.355.02-.894s-.004-1.122-.011-1.748c-.006-.626.003-1.023.028-1.19.025-.169.064-.628.116-1.377a39.553 39.553 0 0 1 .284-2.832c.007-.062.033-.245.078-.551.045-.305.1-.583.166-.832s.132-.482.2-.7c.068-.218.088-.275.061-.172-.027.103.007-.012.104-.346.096-.333.14-.743.13-1.228a4.71 4.71 0 0 1 .145-1.317c.106-.392.207-.703.303-.935.094-.231.137-.354.126-.367-.01-.014-.012-.035-.002-.063a5.17 5.17 0 0 0 .066-.404c.034-.24.046-.341.037-.302-.01.04.008-.116.052-.467.044-.35.068-.496.071-.44.082-.657.112-.892.09-.704.04-.286.069-.5.085-.64.016-.142.021-.227.014-.254-.006-.027-.007-.022-.003.015s.007-.576.01-1.84c.001-1.264.025-2.312.07-3.145.045-.831.105-1.333.18-1.504.076-.171.117-.315.125-.432.008-.116.014-.16.018-.132.004.028.004-.058 0-.258a7.584 7.584 0 0 1 0-.37.541.541 0 0 1 .006-.063 55.35 55.35 0 0 0 .198-.83c.03-.13.048-.182.055-.16.162-.301.236-.452.222-.453.15-.347.235-.518.255-.514.189-.49.275-.7.26-.626.195-.335.276-.49.245-.463.243-.476.322-.63.237-.461.282-.263.378-.368.288-.315.12-.177.276-.386.466-.628s.279-.355.267-.338c.129-.056.122-.04-.02.05-.143.089.022-.042.495-.392.473-.35.912-.68 1.317-.99.405-.308.717-.474.938-.496.22-.022.482-.097.786-.226.305-.129.425-.175.361-.138-.065.036.029-.025.28-.181a3.7 3.7 0 0 1 .797-.374c.279-.092.523-.171.732-.237.208-.066.458-.12.749-.164a55.216 55.216 0 0 0 1.176-.192c-.031.006.005.002.107-.01.102-.01.114-.014.034-.008-.079.005.143-.04.666-.137s.944-.16 1.263-.192c.319-.03.571-.041.754-.03.184.01.238.01.162 0-.076-.011-.072-.015.012-.012.085.002.126.019.122.05-.002.03-.027.004-.075-.079s.29.007 1.014.271c.724.265 1.246.523 1.567.775.321.252.558.403.71.455.152.052.223.078.215.08a.143.143 0 0 1-.044-.001c-.021-.003.007-.014.083-.032.076-.018.302.14.676.475.375.336.654.669.836.998.183.33.291.532.323.604l.033.071c-.01-.025.001.014.032.117.032.104.05.14.053.106.004-.033.048.234.134.8.085.567.201 1.126.348 1.678.146.552.26.97.342 1.254.083.285.132.46.148.526.015.066.015.07-.001.01-.017-.059-.02-.068-.008-.029l.012.05c-.003-.008-.004-.02-.003-.036 0-.017.026.055.077.217.05.163.116.364.198.604l.194.58a.933.933 0 0 0 .135.293c.042.05.047.08.015.088-.032.009.117.316.447.921.329.605.595 1.031.798 1.278.202.246.321.395.357.446.036.051.122.181.258.39l.292.445c.057.087.08.128.068.123.251.492.353.704.304.638.277.719.364.959.26.72.01.052.048.218.116.5.069.282.094.386.075.313-.02-.074-.023-.078-.009-.013s.038.197.073.395c.035.197.05.316.046.356-.006.04.003.072.025.095.021.023-.006.144-.081.364-.076.219-.105.286-.086.202.021-.083.028-.11.022-.082l-.008.04a14.757 14.757 0 0 0-.144.75c-.019.119-.042.344-.07.675-.026.332-.034.497-.024.494.011-.002.01-.016-.003-.041-.013-.026-.018.076-.015.305.003.23.006.329.008.297.002-.032.075.392.219 1.273.145.882.254 1.546.33 1.992l.181 1.085.068.411.014.081.063.38.125.748.076.458a.348.348 0 0 1-.006-.037l.328 1.968c.223 1.339.462 2.756.717 4.252.255 1.496.424 2.512.505 3.048.081.535.214 1.377.399 2.524.184 1.146.352 2.118.503 2.913.152.796.264 1.306.338 1.53.072.224.202.652.39 1.282.187.632.351 1.185.494 1.66.142.475.209.708.203.697-.008-.01-.008.026 0 .109.006.083.016.077.03-.016.013-.093.073.174.178.8.105.625.137 1.104.097 1.437-.039.333-.088.577-.147.733-.058.156-.081.239-.069.251.013.011.012.004-.002-.023-.014-.025-.023.038-.027.189s-.026.468-.064.953c-.039.484-.053.669-.043.556.01-.112.008-.125-.004-.039-.014.086-.02.174-.018.263 0 .088.009.264.026.529.016.265.076.718.179 1.36a149.63 149.63 0 0 0 .361 2.178c.026.162.038.263.035.303-.002.041-.009.009-.021-.093-.011-.102.114.593.375 2.085s.457 2.631.589 3.416c.132.787.226 1.357.283 1.71.057.355.044.68-.039.976-.084.297-.116.434-.096.411.018-.023.02-.011.004.036-.017.047-.023.166-.02.358.004.193.003.313-.003.362a.474.474 0 0 0-.002.118c.005.031.009.138.011.321s.003.26.004.229c0-.03.001-.05.003-.062 0-.011.013.121.037.395s.244 1.327.661 3.157l.048-.008c.061.363.087.519.077.466l.122.726-.001-.008c-.004-.106.004-.021.024.257.019.278.048.529.088.751l.059.333a1.98 1.98 0 0 0 .064.18c.026.068.076.192.149.374.073.181.15.356.23.527a17.964 17.964 0 0 0 .338.68c-.02-.043-.027-.065-.023-.064.004.001.033.052.087.151.054.1.19.364.408.793l.032-.005c-.047-.079-.052-.086-.016-.021.036.065.129.219.278.462l.319.514c.062.101.089.13.081.088.027.066.121.245.28.537.016-.003.038.027.064.089.016-.003.038.031.066.1.016-.003.028.017.035.06.008.042.005.075-.009.097"/><path d="M44.593 0c-.619 0-1.161.34-1.47.876L.232 75.24a1.714 1.714 0 0 0 0 1.72l42.89 74.364c.31.536.883.876 1.502.876h85.752c.619 0 1.192-.34 1.501-.876l42.891-74.364a1.713 1.713 0 0 0 0-1.72L131.877.876A1.741 1.741 0 0 0 130.376 0H44.593Zm1.001 3.473h83.78l41.891 72.611-41.891 72.643h-83.78L3.735 76.084l41.86-72.611Z"/></g></svg>