<svg stroke-miterlimit="10" style="fill-rule:nonzero;clip-rule:evenodd;stroke-linecap:round;stroke-linejoin:round" viewBox="0 0 175 153" xml:space="preserve" xmlns="http://www.w3.org/2000/svg" xmlns:vectornator="http://vectornator.io"><clipPath id="a"><path d="M0 0h175v153H0z"/></clipPath><g fill-rule="evenodd" clip-path="url(#a)" vectornator:layerName="Layer 1"><path d="M3.948 76.192c.192-.088.368-.159.528-.214.161-.055.329-.127.503-.216s.316-.154.424-.197c.11-.043.384-.232.824-.566.44-.334.783-.717 1.029-1.15.244-.433.861-1.262 1.85-2.488a65.445 65.445 0 0 1 3.046-3.516 83.269 83.269 0 0 1 3.743-3.734c1.453-1.372 2.655-2.424 3.606-3.155.95-.73 2.39-1.857 4.32-3.38a463.27 463.27 0 0 1 4.437-3.471c1.03-.79 2.765-1.428 5.205-1.911 2.44-.484 4.335-.729 5.687-.735 1.351-.007 2.397-.01 3.137-.008.74.002 1.614.033 2.622.095 1.008.06 2.484.039 4.428-.065 1.944-.105 3.713-.443 5.307-1.014 1.595-.572 2.666-1 3.214-1.282.548-.282 1.447-.81 2.699-1.586a92.699 92.699 0 0 0 2.91-1.86 45.594 45.594 0 0 1 2.608-1.612c1.05-.608 1.787-1 2.212-1.177.426-.176.844-.354 1.255-.533.41-.178.607-.269.593-.27-.016-.001.494-.25 1.53-.744a27.93 27.93 0 0 1 3.13-1.271 74.627 74.627 0 0 1 3.783-1.141c1.47-.408 2.73-.707 3.785-.897 1.055-.191 2.022-.246 2.902-.166.879.082 1.582.27 2.11.564.526.295.863.475 1.008.539.146.063.355.498.629 1.304.273.806.41 1.447.41 1.925.001.478-.016.85-.05 1.114a32.87 32.87 0 0 0-.065.543c-.01.098-.053.33-.133.698-.08.368-.15.561-.211.58a.437.437 0 0 1-.092.026c0-.003-.048.143-.142.438a91.16 91.16 0 0 1-.793 2.239c-.434 1.196-.73 2.092-.887 2.687-.157.594-.293 1.13-.407 1.608a15.98 15.98 0 0 1-.32 1.169 30.42 30.42 0 0 1-.362 1.038c-.145.39-.26.7-.344.932a10.49 10.49 0 0 1-.272.673 11.51 11.51 0 0 0-.27.664c-.083.227-.207.583-.373 1.069-.165.486-.287.852-.364 1.099-.077.248-.148.494-.215.74a69.83 69.83 0 0 1-.532 1.954c-.14.485-.265.93-.377 1.334-.111.406-.238.828-.38 1.268-.143.44-.288.928-.436 1.464-.147.536-.255.934-.324 1.194-.069.26-.105.39-.11.386a9.052 9.052 0 0 0-.185.612c-.118.41-.11 1.267.023 2.573s.406 2.972.819 5a17.926 17.926 0 0 0 2.187 5.667c1.046 1.75 1.787 3.134 2.222 4.15.435 1.018.757 1.837.965 2.46.209.62.2 1.266-.025 1.936a6.329 6.329 0 0 1-.903 1.764c-.377.506-.68.873-.91 1.1-.229.228-.45.429-.66.604-.212.174-.415.335-.612.481a7.116 7.116 0 0 1-.838.514c-.36.195-.676.34-.946.432-.269.093-.435.15-.498.17-.064.02-.14.037-.23.053-.09.017-.308.053-.655.108-.347.055-.52.075-.519.059.001-.017-.338.014-1.02.092-.68.078-1.34.113-1.977.105a19.454 19.454 0 0 0-1.412.019c-.303.02-1.373.132-3.209.337-1.836.205-3.299 1.153-4.388 2.846s-1.832 3.104-2.229 4.234-.684 1.892-.86 2.285c-.175.394-.447 1.024-.813 1.891a12.246 12.246 0 0 1-1.504 2.573c-.636.848-1.166 1.441-1.588 1.777-.423.336-.856.643-1.299.923-.442.28-.892.551-1.348.815-.457.263-.915.698-1.374 1.305-.46.607-.93 1.366-1.411 2.278a83.994 83.994 0 0 0-1.215 2.376 46.9 46.9 0 0 1-.74 1.473c-.166.31-.27.515-.312.615a.487.487 0 0 0-.054.217c.007.045-.005.068-.036.07-.032.003-.047.396-.046 1.18 0 .783.017 1.528.05 2.235.035.708.077 1.202.126 1.484.05.281.075.518.074.713 0 .194 0 .28.002.257a11.945 11.945 0 0 0-.024 3.942c.02.309-.015 1.061-.104 2.258-.09 1.197-.106 2.029-.05 2.496.057.466-.124 1.042-.543 1.727-.418.685-.78 1.213-1.085 1.586-.304.372-.539.653-.704.843-.165.189-.214.236-.148.142.067-.094.01-.028-.171.2a3.84 3.84 0 0 0-.416.622 3.977 3.977 0 0 1-.257.444c-.076.109-.166.239-.27.392-.103.152-.151.231-.144.238.006.006.013 0 .023-.018a19.82 19.82 0 0 1-.439.667c-.187.276-.38.531-.58.766-.2.235-.295.345-.287.331.008-.015.006-.016-.008-.004l-.38.353c-.24.223-.317.305-.23.246.087-.058.023-.027-.193.094-.216.12-.496.365-.84.736-.343.371-.603.705-.778 1.004a5.25 5.25 0 0 0-.328.617 3.287 3.287 0 0 0-.115.365 5.99 5.99 0 0 0-.09.41 1.089 1.089 0 0 1-.034.176c.002-.026-.027.036-.087.186-.061.15-1.697 2.545-1.828 2.759-.13.215-40.749-74.26-40.557-74.346Z"/><path d="M44.626 0c-.62 0-1.193.34-1.502.876L.232 75.21a1.773 1.773 0 0 0 0 1.752l42.892 74.365c.308.534.885.842 1.502.845l86.472.438a1.752 1.752 0 0 0 1.533-.876l42.142-74.803c.3-.534.305-1.19 0-1.721L131.88.876A1.741 1.741 0 0 0 130.379 0H44.626Zm1 3.473h83.752l41.891 72.644-41.172 73.02-84.44-.406-41.92-72.645 41.89-72.613Z"/></g></svg>