<svg stroke-miterlimit="10" style="fill-rule:nonzero;clip-rule:evenodd;stroke-linecap:round;stroke-linejoin:round" viewBox="0 0 175 153" xml:space="preserve" xmlns="http://www.w3.org/2000/svg" xmlns:vectornator="http://vectornator.io"><clipPath id="a"><path d="M0 0h175v153H0z"/></clipPath><g fill-rule="evenodd" clip-path="url(#a)" vectornator:layerName="Layer 1"><path d="m129.677 2.878-84.417-.27L2.995 76.305 44.9 150.476l84.957.165 43.636-74.52-43.816-73.243Z" stroke="#000" stroke-width=".5"/><path d="M44.567.091c-.626 0-1.213.316-1.525.858L.242 75.332a1.755 1.755 0 0 0-.016 1.752l42.94 74.323c.314.542.883.864 1.51.863l85.77-.06c.626-.001 1.181-.347 1.493-.889l42.831-74.384a1.753 1.753 0 0 0-.015-1.751L131.815.894A1.754 1.754 0 0 0 130.306 0L44.567.091Zm.969 3.495 83.769-.074 41.923 72.55-41.782 72.653-83.738.043-41.923-72.55L45.536 3.587Z" fill="#ff9adf"/></g></svg>